<?xml version="1.0" encoding="utf-8" ?><svg xmlns="http://www.w3.org/2000/svg" xmlns:xlink="http://www.w3.org/1999/xlink" width="1024" height="1024" viewBox="0 0 1024 1024"><path fill="#D45D3C" d="M693.255 284.688C723.575 282.681 753.93 288.067 781.708 300.384C839.089 326.282 881.286 375.307 903.618 433.705C907.584 444.941 913.023 456.95 907.187 468.617C898.505 485.978 879.569 479.264 864.983 480.187C803.214 484.094 751.709 522.535 714.162 569.435C697.546 590.19 681.134 610.106 660.713 627.295C650.246 635.98 639.165 643.896 627.556 650.981C623.307 653.558 615.498 658.069 611.003 659.797C590.376 667.728 601.103 679.043 599.344 696.838C597.82 713.237 593.634 729.278 586.95 744.33C565.395 791.697 530.601 823.724 481.813 841.592C463.573 848.222 443.991 850.302 424.765 847.65C415.623 846.371 404.994 844.195 402.436 833.972C397.658 814.88 413.779 812.886 423.609 805.744C440.722 793.311 452.671 772.955 462.691 754.896C468.765 743.95 473.316 732.481 477.493 720.756C479.403 714.261 483.111 705.103 480.909 698.369C477.856 689.723 464.999 687.621 460.515 696.273C458.737 699.831 457.691 703.829 456.585 707.639C452.073 723.172 445.213 738.011 438.618 752.767C421.598 748.457 396.013 737.302 380.592 728.999C338.788 706.491 302.905 671.945 279.6 630.507C269.82 613.117 263.046 594.86 257.458 575.777C252.458 558.907 250.18 544.219 249.296 526.726C232.369 527.435 215.425 525.809 198.942 521.894C150.478 510.877 106.682 476.956 79.9892 435.619C72.8816 424.029 66.8446 411.78 62.0755 399.041C57.3974 386.545 69.9703 374.993 81.8872 380.68C86.1325 382.706 89.4553 386.077 93.5169 388.379C109.09 397.401 131.256 399.488 148.553 394.524C171.216 388.019 191.262 383.286 214.797 390.981C234.162 397.313 252.11 411.601 261.601 430.074C263.49 423.303 264.578 419.493 267.425 413.085C280.744 383.105 312.305 365.7 344.371 365.022C360.328 364.684 375.05 366.89 390.766 361.293C398.864 358.409 403.431 356.212 410.105 350.847C416.158 345.982 422.305 336.85 429.282 334.594C432.586 333.493 436.199 333.815 439.255 335.483C451.048 341.819 447.791 353.577 445.804 364.046C434.633 422.893 394.412 475.413 341.901 503.667C329.065 510.574 315.966 514.437 302.009 518.368C307.151 527.775 318.438 541.097 326.363 547.998C342.835 562.341 365.535 568.346 387.094 566.75C403.755 565.517 415.605 560.385 428.718 550.421C462.357 524.966 470.663 481.13 486.516 444.317C523.633 358.126 597.389 292.439 693.255 284.688Z"/><path fill="#D45D3C" d="M861.721 505.252C870.634 504.826 887.31 504.283 894.892 508.631C916.486 521.013 901.966 544.404 893.928 558.608C847.608 640.467 766.45 697.927 680.619 732.67C668.141 737.721 655.784 742.474 643.151 746.141C632.657 749.389 618.331 753.407 607.626 755.722C615.72 736.645 621.12 718.087 622.917 697.324C623.359 692.21 623.244 687.032 623.455 681.863C632.712 675.802 642.749 670.484 651.977 664.389C685.57 642.556 709.561 612.534 734.243 581.67C765.31 542.82 811.255 509.869 861.721 505.252Z"/><path fill="#D45D3C" d="M782.966 706.068C783.846 707.049 780.674 715.992 780.221 717.634C761.206 786.531 708.122 842.863 636.107 854.954C627.673 856.37 622.529 857.03 615.087 851.824C606.306 843.553 608.264 832.171 617.427 824.996C636.829 809.805 647.353 789.747 655.58 767.231C660.094 765.193 668.779 762.442 673.633 760.733C684.276 757.063 694.769 752.973 705.09 748.475C719.143 742.189 734.065 734.612 747.569 727.165C759.49 720.59 771.135 712.76 782.966 706.068Z"/><path fill="#D45D3C" d="M658.847 138.691C677.547 135.547 706.544 146.303 719.779 159.05C727.419 166.408 720.109 182.671 707.778 180.448C699.707 178.994 697.996 175.846 691.291 172.766C672.047 163.925 648.475 167.924 632.78 181.924C616.161 196.805 610.95 220.415 614.505 241.784C615.976 250.808 622.239 260.677 612.984 267.625C602.174 275.884 594.053 264.105 587.23 256.994C584.007 253.612 580.487 250.526 576.712 247.774C567.672 241.252 557.616 237.534 546.626 235.998C531.05 234.444 514.78 239.857 504.91 252.239C497.882 261.055 494.375 270.223 480.849 265.352C472.95 262.522 471.707 252.934 475.024 246.168C491.113 213.346 529.646 198.793 564.039 209.318C571.827 211.702 578.32 214.69 585.716 218.1C588.246 177.354 617.637 143.239 658.847 138.691Z"/></svg>